Coordinates
version=1
nRows=33
nColumns=21
inDegrees=yes

Units are S.I. units (second, meters, Newtons, ...)
If the header above contains a line with 'inDegrees', this indicates whether rotational values are in degrees (yes) or radians (no).

endheader
time	sternoclavicular_r2	sternoclavicular_r3	unrotscap_r3	unrotscap_r2	acromioclavicular_r2	acromioclavicular_r3	acromioclavicular_r1	unrothum_r1	unrothum_r3	unrothum_r2	elv_angle	shoulder_elev	shoulder1_r2	shoulder_rot	elbow_flexion	pro_sup	deviation	flexion	wrist_hand_r1	wrist_hand_r3
      0.00000000	    -10.23831139	      4.33646548	     -4.33646548	     10.23831139	     -2.07304979	     16.75365922	      7.53065452	     -7.53065452	    -16.75365922	      2.07304979	    125.57889250	     42.30697703	   -125.57889250	     19.95212588	      0.91044160	      0.00000000	      0.00000000	     -0.00000000	     -0.00000000	      0.00000000
      0.02010050	    -10.23832291	      4.33647036	     -4.33647036	     10.23832291	     -2.07305213	     16.75367808	      7.53066299	     -7.53066299	    -16.75367808	      2.07305213	    125.57889152	     42.30702465	   -125.57889152	     19.95213052	      0.91037429	      0.00000000	      0.00000000	     -0.00000000	     -0.00000000	      0.00000000
      0.04020101	    -10.23833545	      4.33647567	     -4.33647567	     10.23833545	     -2.07305466	     16.75369859	      7.53067221	     -7.53067221	    -16.75369859	      2.07305466	    125.57892350	     42.30707645	   -125.57892350	     19.95213028	      0.91037089	      0.00000000	      0.00000000	     -0.00000000	     -0.00000000	      0.00000000
      0.06030151	    -10.23839621	      4.33650141	     -4.33650141	     10.23839621	     -2.07306697	     16.75379802	      7.53071690	     -7.53071690	    -16.75379802	      2.07306697	    125.57908218	     42.30732753	   -125.57908218	     19.95212855	      0.91036215	      0.00000000	      0.00000000	     -0.00000000	     -0.00000000	      0.00000000
      0.08040201	    -10.23855278	      4.33656773	     -4.33656773	     10.23855278	     -2.07309867	     16.75405423	      7.53083207	     -7.53083207	    -16.75405423	      2.07309867	    125.57949128	     42.30797453	   -125.57949128	     19.95212411	      0.91033977	      0.00000000	      0.00000000	     -0.00000000	     -0.00000000	      0.00000000
      0.10050251	    -10.23885105	      4.33669406	     -4.33669406	     10.23885105	     -2.07315906	     16.75454231	      7.53105146	     -7.53105146	    -16.75454231	      2.07315906	    125.58027077	     42.30920705	   -125.58027077	     19.95211571	      0.91029723	      0.00000000	      0.00000000	     -0.00000000	     -0.00000000	      0.00000000
      0.12060302	    -10.23933546	      4.33689923	     -4.33689923	     10.23933546	     -2.07325715	     16.75533497	      7.53140776	     -7.53140776	    -16.75533497	      2.07325715	    125.58153682	     42.31120870	   -125.58153682	     19.95210212	      0.91022831	      0.00000000	      0.00000000	     -0.00000000	     -0.00000000	      0.00000000
      0.14070352	    -10.24004904	      4.33720147	     -4.33720147	     10.24004904	     -2.07340163	     16.75650265	      7.53193262	     -7.53193262	    -16.75650265	      2.07340163	    125.58340176	     42.31415738	   -125.58340176	     19.95208215	      0.91012705	      0.00000000	      0.00000000	     -0.00000000	     -0.00000000	      0.00000000
      0.16080402	    -10.24182693	      4.33795450	     -4.33795450	     10.24182693	     -2.07376162	     16.75941195	      7.53324033	     -7.53324033	    -16.75941195	      2.07376162	    125.58536856	     42.32150404	   -125.58536856	     19.95242652	      0.90682064	      0.00000000	      0.00000000	     -0.00000000	     -0.00000000	      0.00000000
      0.18090452	    -10.24310390	      4.33849536	     -4.33849536	     10.24310390	     -2.07402018	     16.76150154	      7.53417958	     -7.53417958	    -16.76150154	      2.07402018	    125.58875402	     42.32678075	   -125.58875402	     19.95237792	      0.90664924	      0.00000000	      0.00000000	     -0.00000000	     -0.00000000	      0.00000000
      0.20100503	    -10.24466458	      4.33915639	     -4.33915639	     10.24466458	     -2.07433618	     16.76405538	      7.53532752	     -7.53532752	    -16.76405538	      2.07433618	    125.59317814	     42.33322981	   -125.59317814	     19.95230457	      0.90670967	      0.00000000	      0.00000000	     -0.00000000	     -0.00000000	      0.00000000
      0.22110553	    -10.24658741	      4.33997081	     -4.33997081	     10.24658741	     -2.07472552	     16.76720185	      7.53674183	     -7.53674183	    -16.76720185	      2.07472552	    125.59862813	     42.34117539	   -125.59862813	     19.95220999	      0.90682176	      0.00000000	      0.00000000	     -0.00000000	     -0.00000000	      0.00000000
      0.24120603	    -10.24891109	      4.34095502	     -4.34095502	     10.24891109	     -2.07519602	     16.77100425	      7.53845099	     -7.53845099	    -16.77100425	      2.07519602	    125.60518172	     42.35077735	   -125.60518172	     19.95209151	      0.90698398	      0.00000000	      0.00000000	     -0.00000000	     -0.00000000	      0.00000000
      0.26130653	    -10.25168441	      4.34212966	     -4.34212966	     10.25168441	     -2.07575756	     16.77554243	      7.54049087	     -7.54049087	    -16.77554243	      2.07575756	    125.61290642	     42.36223734	   -125.61290642	     19.95194934	      0.90715137	      0.00000000	      0.00000000	     -0.00000000	     -0.00000000	      0.00000000
      0.28140704	    -10.25497307	      4.34352259	     -4.34352259	     10.25497307	     -2.07642345	     16.78092389	      7.54290980	     -7.54290980	    -16.78092389	      2.07642345	    125.62186404	     42.37582681	   -125.62186404	     19.95178972	      0.90718690	      0.00000000	      0.00000000	     -0.00000000	     -0.00000000	      0.00000000
      0.30150754	    -10.25924303	      4.34533114	     -4.34533114	     10.25924303	     -2.07728802	     16.78791112	      7.54605051	     -7.54605051	    -16.78791112	      2.07728802	    125.63111801	     42.39347123	   -125.63111801	     19.95190561	      0.90683474	      0.00000000	      0.00000000	     -0.00000000	     -0.00000000	      0.00000000
      0.32160804	    -10.26331682	      4.34705660	     -4.34705660	     10.26331682	     -2.07811288	     16.79457734	      7.54904693	     -7.54904693	    -16.79457734	      2.07811288	    125.64397448	     42.41030503	   -125.64397448	     19.95166177	      0.90674297	      0.00000000	      0.00000000	     -0.00000000	     -0.00000000	      0.00000000
      0.34170854	    -10.26844347	      4.34922801	     -4.34922801	     10.26844347	     -2.07915093	     16.80296644	      7.55281777	     -7.55281777	    -16.80296644	      2.07915093	    125.65670922	     42.43148950	   -125.65670922	     19.95174953	      0.90468810	      0.00000000	      0.00000000	     -0.00000000	     -0.00000000	      0.00000000
      0.36180905	    -10.27444263	      4.35176897	     -4.35176897	     10.27444263	     -2.08036563	     16.81278327	      7.55723037	     -7.55723037	    -16.81278327	      2.08036563	    125.66940388	     42.45627934	   -125.66940388	     19.95207456	      0.90007213	      0.00000000	      0.00000000	     -0.00000000	     -0.00000000	      0.00000000
      0.38190955	    -10.28098445	      4.35453978	     -4.35453978	     10.28098445	     -2.08169022	     16.82348811	      7.56204212	     -7.56204212	    -16.82348811	      2.08169022	    125.68504099	     42.48331159	   -125.68504099	     19.95208984	      0.89707047	      0.00000000	      0.00000000	     -0.00000000	     -0.00000000	      0.00000000
      0.40201005	    -10.28786566	      4.35745433	     -4.35745433	     10.28786566	     -2.08308352	     16.83474831	      7.56710351	     -7.56710351	    -16.83474831	      2.08308352	    125.70800118	     42.51174629	   -125.70800118	     19.95113593	      0.90195020	      0.00000000	      0.00000000	     -0.00000000	     -0.00000000	      0.00000000
      0.42211055	    -10.29561352	      4.36073596	     -4.36073596	     10.29561352	     -2.08465231	     16.84742668	      7.57280234	     -7.57280234	    -16.84742668	      2.08465231	    125.72774971	     42.54376218	   -125.72774971	     19.95091512	      0.90031409	      0.00000000	      0.00000000	     -0.00000000	     -0.00000000	      0.00000000
      0.44221106	    -10.30409346	      4.36432766	     -4.36432766	     10.30409346	     -2.08636932	     16.86130298	      7.57903965	     -7.57903965	    -16.86130298	      2.08636932	    125.74930516	     42.57880316	   -125.74930516	     19.95066835	      0.89850209	      0.00000000	      0.00000000	     -0.00000000	     -0.00000000	      0.00000000
      0.46231156	    -10.31332806	      4.36823900	     -4.36823900	     10.31332806	     -2.08823914	     16.87641420	      7.58583203	     -7.58583203	    -16.87641420	      2.08823914	    125.77275400	     42.61696256	   -125.77275400	     19.95039631	      0.89656214	      0.00000000	      0.00000000	     -0.00000000	     -0.00000000	      0.00000000
      0.48241206	    -10.32333236	      4.37247635	     -4.37247635	     10.32333236	     -2.09026481	     16.89278493	      7.59319057	     -7.59319057	    -16.89278493	      2.09026481	    125.79825399	     42.65830257	   -125.79825399	     19.95010196	      0.89463757	      0.00000000	      0.00000000	     -0.00000000	     -0.00000000	      0.00000000
      0.50251256	    -10.33414112	      4.37705444	     -4.37705444	     10.33414112	     -2.09245336	     16.91047206	      7.60114081	     -7.60114081	    -16.91047206	      2.09245336	    125.82589550	     42.70296678	   -125.82589550	     19.94979362	      0.89271175	      0.00000000	      0.00000000	     -0.00000000	     -0.00000000	      0.00000000
      0.52261307	    -10.34643768	      4.38226268	     -4.38226268	     10.34643768	     -2.09494317	     16.93059377	      7.61018538	     -7.61018538	    -16.93059377	      2.09494317	    125.85366054	     42.75377888	   -125.85366054	     19.94973858	      0.88698337	      0.00000000	      0.00000000	     -0.00000000	     -0.00000000	      0.00000000
      0.54271357	    -10.35889907	      4.38754073	     -4.38754073	     10.35889907	     -2.09746635	     16.95098521	      7.61935119	     -7.61935119	    -16.95098521	      2.09746635	    125.88552963	     42.80527212	   -125.88552963	     19.94940238	      0.88425398	      0.00000000	      0.00000000	     -0.00000000	     -0.00000000	      0.00000000
      0.56281407	    -10.37083166	      4.39259482	     -4.39259482	     10.37083166	     -2.09988245	     16.97051134	      7.62812805	     -7.62812805	    -16.97051134	      2.09988245	    125.92408893	     42.85458025	   -125.92408893	     19.94901144	      0.89173724	      0.00000000	      0.00000000	     -0.00000000	     -0.00000000	      0.00000000
      0.58291457	    -10.38445692	      4.39836583	     -4.39836583	     10.38445692	     -2.10264129	     16.99280728	      7.63814993	     -7.63814993	    -16.99280728	      2.10264129	    125.96228254	     42.91088282	   -125.96228254	     19.94879478	      0.89433835	      0.00000000	      0.00000000	     -0.00000000	     -0.00000000	      0.00000000
      0.60301508	    -10.39931754	      4.40466009	     -4.40466009	     10.39931754	     -2.10565026	     17.01712475	      7.64908046	     -7.64908046	    -17.01712475	      2.10565026	    126.00139279	     42.97229021	   -126.00139279	     19.94847762	      0.89361858	      0.00000000	      0.00000000	     -0.00000000	     -0.00000000	      0.00000000
      0.62311558	    -10.41625319	      4.41183323	     -4.41183323	     10.41625319	     -2.10907939	     17.04483773	      7.66153725	     -7.66153725	    -17.04483773	      2.10907939	    126.03925700	     43.04227208	   -126.03925700	     19.94789473	      0.88287485	      0.00000000	      0.00000000	     -0.00000000	     -0.00000000	      0.00000000
      0.64321608	    -10.43327460	      4.41904270	     -4.41904270	     10.43327460	     -2.11252588	     17.07269105	      7.67405713	     -7.67405713	    -17.07269105	      2.11252588	    126.08194163	     43.11260833	   -126.08194163	     19.94747637	      0.87917918	      0.00000000	      0.00000000	     -0.00000000	     -0.00000000	      0.00000000
